<svg xmlns="http://www.w3.org/2000/svg" xmlns:xlink="http://www.w3.org/1999/xlink" viewBox="0 0 116 116"><defs><style>.cls-1{fill:#f2f2f2;}.cls-2{fill:url(#Sfumatura_senza_nome_24);}</style><linearGradient id="Sfumatura_senza_nome_24" x1="208.22" y1="228.39" x2="303.88" y2="283.62" gradientUnits="userSpaceOnUse"><stop offset="0" stop-color="#2ad7ea"/><stop offset="1" stop-color="#16b1d7"/></linearGradient></defs><g id="Livello_2" data-name="Livello 2"><path class="cls-1" d="M256,198a58,58,0,1,0,58,58A58,58,0,0,0,256,198Zm-5.79,64.66a5,5,0,0,1-7.62.75,10.36,10.36,0,0,1-1.66-13.19,5.05,5.05,0,0,1,5.63-1.65c3.25,1.36,4.44,4.14,5,7.34a11.62,11.62,0,0,1,0,1.78A7.08,7.08,0,0,1,250.21,262.66Zm5,23.71c-.31-1.17.74-1.5,1.42-1.9a6.66,6.66,0,0,0,3-3.45c.35-.95.86-.92,1.61-.44a31.4,31.4,0,0,1,2.87,1.7c1.37,1.12,2.68.8,4.09.19.48-.2,1.3-.69,1.51-.07s-.62.89-1.25,1.09c-4,1.26-8.05,2.52-12.05,3.85C255.33,287.69,255.06,287.38,255.2,286.37Zm32.94-32.56c-1,.26-2,.54-3,.72-3,.54-5.89,1.41-8.87,1.89a15.54,15.54,0,0,0-6.28,2.79c-3.86,2.58-4.61,7-2.12,11.18a28.6,28.6,0,0,1,2.61,4.43c.19.49.44.42.83.28,4.26-1.55,8.71-2.42,13-3.8.36-.12.85-.28,1.08.17s-.18.64-.38.93c-.92,1.3-1.92,2.55-2.73,3.92a3.89,3.89,0,0,1-2.45,1.76c-4,1.22-8.09,2.44-12.12,3.69a2.79,2.79,0,0,1-2.27-.22c-1.84-.94-3.54-2.2-5.66-2.51a4.22,4.22,0,0,0-4.45,2.14,5.49,5.49,0,0,0-.89,3.3,4.39,4.39,0,0,1,0,1c-.22,2.18-.39,2.33-2.54,2.3-4.75-.06-3.62.4-5.51-3.67a15.13,15.13,0,0,0-2.77-4.3c-.79-.81-.64-2.23-.85-3.38-.27-1.48-.48-3-.85-4.43a3.34,3.34,0,0,1-.13-.83c0-.42-.18-.93.29-1.2s.74.18,1.07.35a9,9,0,0,0,11.67-3.07,16.18,16.18,0,0,0,2.7-9.47,19,19,0,0,0-5.28-13,9.6,9.6,0,0,0-9.07-3c-3.43.73-5.64,3.17-6.93,6.4a19.16,19.16,0,0,0-.62,12.2c.75,3,1,6,1.59,9.06s1.06,6,1.77,8.89c.39,1.62-1,1.73-1.68,2.38s-1.08-.16-1.43-.58c-.9-1.07-1.8-2.14-2.71-3.2a3.6,3.6,0,0,1-.26-3.76c.94-2.43-1.14-8.15-3.8-8.75a15.81,15.81,0,0,1-1.56-.62,1.42,1.42,0,0,1-1-1.21,30.57,30.57,0,0,0-1-5.37c-.14-.52.24-.76.62-1a7,7,0,0,0,3.11-6.47,7.08,7.08,0,0,0-1.29-3.81c-1.61-2.08-1.41-4.13-.4-6.31.41-.89.37-2.16,1.27-2.62s1.86.32,2.8.54a2.34,2.34,0,0,0,2-.22c.19-.14.42-.31.31-.59a.42.42,0,0,0-.6-.21c-.9.48-1.69-.07-2.51-.24,1.33,0,2.51-.59,3.79-.69,1-.09,1.86-1.66,1.9-3a17.89,17.89,0,0,1,.44-5,1.62,1.62,0,0,1,.86-1.16c1.26-.6,2.53-1.19,3.76-1.87.68-.37,1-.14,1.34.44.53,1,1,2.07,1.55,3.11a5.07,5.07,0,0,0,4.36,3.1,4.88,4.88,0,0,0,3.54-1.49c1.26-1.18,2-2.77,3.37-3.88a1.93,1.93,0,0,1,1.36-.65,64.77,64.77,0,0,0,11.32-.64c3.34-.35,5.45,1.24,7.78,2.87l1,.71c.28.2.76.34.66.75s-.66.36-1,.35c-1.73,0-3.43.36-5.13.38-2.81,0-5.55.77-8.36.56-.38,0-.64-.1-.72.47-.27,2-.68,3.93-.95,5.91a8,8,0,0,0,3.57,8.17,7.11,7.11,0,0,0,2.55,1,16.65,16.65,0,0,0,9.28-.19,27.25,27.25,0,0,1,3.64-.5c2-.37,4.07-.56,6.1-1,.64-.13.77.44.82.93.29,2.69.83,5.34,1.31,8C288.94,253.51,288.59,253.69,288.14,253.81Zm-6.6,9.39a14.1,14.1,0,0,0,2.47,5.39c.48.76.23,1.09-.48,1.28-3.91,1.08-7.84,2.12-11.75,3.21-.67.19-.88-.21-1.11-.61-.94-1.71-1.84-3.45-2.79-5.16-.34-.62,0-1,.42-1.34a15.73,15.73,0,0,0,2.78-3.25,4.25,4.25,0,0,0,.83-1.71c.16-1.88,1.4-2.46,3-2.72,2.93-.47,5.81-1.16,8.68-1.92.07,0,.15,0,.33.09-.19.6-.69.84-1,1.25A7.11,7.11,0,0,0,281.54,263.2ZM253,223.58a35.25,35.25,0,0,1,5.22-.37c.5,0,1,0,1,.66a.42.42,0,0,1-.36.46,1.08,1.08,0,0,1-.47,0c-2.68-.54-4.08,1.25-5.49,3l-.51.67c-1,1.26-1,1.25-2.19.3a10.88,10.88,0,0,0-4.35-1.9,4.38,4.38,0,0,1-.81-.21,2,2,0,0,1-1.09-1.63c-.12-.72.7-.41,1-.66a2.75,2.75,0,0,1,1.63-.27A46.17,46.17,0,0,0,253,223.58Zm23.83,13.07a7.19,7.19,0,0,0,4.66,6.4c-3.68.78-7.23,1.22-10.79,1.66a1.59,1.59,0,0,1-1.48-.85,11.2,11.2,0,0,0-5.32-3.93,1.43,1.43,0,0,1-1.07-1.47c-.17-2.06.62-4,.58-6.05a1,1,0,0,1,1.24-1c3.16.23,6.25-.74,9.41-.53a3.45,3.45,0,0,0,1.76-.24c.48-.22,1-.39,1.46,0s.21.91.09,1.37A12.72,12.72,0,0,0,276.81,236.65Z" transform="translate(-198 -198)"/></g><g id="Livello_1" data-name="Livello 1"><path class="cls-2" d="M295.25,217.27a53.18,53.18,0,0,0-37.09-16.35,55.09,55.09,0,0,0-57.37,55.15A52.91,52.91,0,0,0,217,295a55.14,55.14,0,0,0,78.21-77.74Zm-13.78,25.78c-3.68.78-7.23,1.22-10.79,1.66a1.59,1.59,0,0,1-1.48-.85,11.2,11.2,0,0,0-5.32-3.93,1.43,1.43,0,0,1-1.07-1.47c-.17-2.06.62-4,.58-6.05a1,1,0,0,1,1.24-1c3.16.23,6.25-.74,9.41-.53a3.45,3.45,0,0,0,1.76-.24c.48-.22,1-.39,1.46,0s.21.91.09,1.37a12.72,12.72,0,0,0-.54,4.62A7.19,7.19,0,0,0,281.47,243.05ZM245,224a2.75,2.75,0,0,1,1.63-.27,46.17,46.17,0,0,0,6.34-.1,35.25,35.25,0,0,1,5.22-.37c.5,0,1,0,1,.66a.42.42,0,0,1-.36.46,1.08,1.08,0,0,1-.47,0c-2.68-.54-4.08,1.25-5.49,3l-.51.67c-1,1.26-1,1.25-2.19.3a10.88,10.88,0,0,0-4.35-1.9,4.38,4.38,0,0,1-.81-.21,2,2,0,0,1-1.09-1.63C243.84,223.89,244.66,224.2,245,224Zm5.2,38.71a5,5,0,0,1-7.62.75,10.36,10.36,0,0,1-1.66-13.19,5.05,5.05,0,0,1,5.63-1.65c3.25,1.36,4.44,4.14,5,7.34a11.62,11.62,0,0,1,0,1.78A7.08,7.08,0,0,1,250.21,262.66Zm18.22,20.83c-4,1.26-8.05,2.52-12.05,3.85-1,.35-1.32,0-1.18-1-.31-1.17.74-1.5,1.42-1.9a6.66,6.66,0,0,0,3-3.45c.35-.95.86-.92,1.61-.44a31.4,31.4,0,0,1,2.87,1.7c1.37,1.12,2.68.8,4.09.19.48-.2,1.3-.69,1.51-.07S269.06,283.29,268.43,283.49Zm19.71-29.68c-1,.26-2,.54-3,.72-3,.54-5.89,1.41-8.87,1.89a15.54,15.54,0,0,0-6.28,2.79c-3.86,2.58-4.61,7-2.12,11.18a28.6,28.6,0,0,1,2.61,4.43c.19.49.44.42.83.28,4.26-1.55,8.71-2.42,13-3.8.36-.12.85-.28,1.08.17s-.18.64-.38.93c-.92,1.3-1.92,2.55-2.73,3.92a3.89,3.89,0,0,1-2.45,1.76c-4,1.22-8.09,2.44-12.12,3.69a2.79,2.79,0,0,1-2.27-.22c-1.84-.94-3.54-2.2-5.66-2.51a4.22,4.22,0,0,0-4.45,2.14,5.49,5.49,0,0,0-.89,3.3,4.39,4.39,0,0,1,0,1c-.22,2.18-.39,2.33-2.54,2.3-4.75-.06-3.62.4-5.51-3.67a15.13,15.13,0,0,0-2.77-4.3c-.79-.81-.64-2.23-.85-3.38-.27-1.48-.48-3-.85-4.43a3.34,3.34,0,0,1-.13-.83c0-.42-.18-.93.29-1.2s.74.18,1.07.35a9,9,0,0,0,11.67-3.07,16.18,16.18,0,0,0,2.7-9.47,19,19,0,0,0-5.28-13,9.6,9.6,0,0,0-9.07-3c-3.43.73-5.64,3.17-6.93,6.4a19.16,19.16,0,0,0-.62,12.2c.75,3,1,6,1.59,9.06s1.06,6,1.77,8.89c.39,1.62-1,1.73-1.68,2.38s-1.08-.16-1.43-.58c-.9-1.07-1.8-2.14-2.71-3.2a3.6,3.6,0,0,1-.26-3.76c.94-2.43-1.14-8.15-3.8-8.75a15.81,15.81,0,0,1-1.56-.62,1.42,1.42,0,0,1-1-1.21,30.57,30.57,0,0,0-1-5.37c-.14-.52.24-.76.62-1a7,7,0,0,0,3.11-6.47,7.08,7.08,0,0,0-1.29-3.81c-1.61-2.08-1.41-4.13-.4-6.31.41-.89.37-2.16,1.27-2.62s1.86.32,2.8.54a2.34,2.34,0,0,0,2-.22c.19-.14.42-.31.31-.59a.42.42,0,0,0-.6-.21c-.9.48-1.69-.07-2.51-.24,1.33,0,2.51-.59,3.79-.69,1-.09,1.86-1.66,1.9-3a17.89,17.89,0,0,1,.44-5,1.62,1.62,0,0,1,.86-1.16c1.26-.6,2.53-1.19,3.76-1.87.68-.37,1-.14,1.34.44.53,1,1,2.07,1.55,3.11a5.07,5.07,0,0,0,4.36,3.1,4.88,4.88,0,0,0,3.54-1.49c1.26-1.18,2-2.77,3.37-3.88a1.93,1.93,0,0,1,1.36-.65,64.77,64.77,0,0,0,11.32-.64c3.34-.35,5.45,1.24,7.78,2.87l1,.71c.28.2.76.34.66.75s-.66.36-1,.35c-1.73,0-3.43.36-5.13.38-2.81,0-5.55.77-8.36.56-.38,0-.64-.1-.72.47-.27,2-.68,3.93-.95,5.91a8,8,0,0,0,3.57,8.17,7.11,7.11,0,0,0,2.55,1,16.65,16.65,0,0,0,9.28-.19,27.25,27.25,0,0,1,3.64-.5c2-.37,4.07-.56,6.1-1,.64-.13.77.44.82.93.29,2.69.83,5.34,1.31,8C288.94,253.51,288.59,253.69,288.14,253.81Zm-6.6,9.39a14.1,14.1,0,0,0,2.47,5.39c.48.76.23,1.09-.48,1.28-3.91,1.08-7.84,2.12-11.75,3.21-.67.19-.88-.21-1.11-.61-.94-1.71-1.84-3.45-2.79-5.16-.34-.62,0-1,.42-1.34a15.73,15.73,0,0,0,2.78-3.25,4.25,4.25,0,0,0,.83-1.71c.16-1.88,1.4-2.46,3-2.72,2.93-.47,5.81-1.16,8.68-1.92.07,0,.15,0,.33.09-.19.6-.69.84-1,1.25A7.11,7.11,0,0,0,281.54,263.2Z" transform="translate(-198 -198)"/></g></svg>