<svg id="Livello_1" data-name="Livello 1" xmlns="http://www.w3.org/2000/svg" xmlns:xlink="http://www.w3.org/1999/xlink" viewBox="0 0 14.08 14"><defs><style>.cls-1{fill:#fff;}.cls-1,.cls-7{fill-rule:evenodd;}.cls-2{mask:url(#mask);}.cls-3{fill:#0065a9;}.cls-4{fill:#007acc;}.cls-5{fill:#1f9cf0;}.cls-6{opacity:0.25;}.cls-7{fill:url(#Sfumatura_senza_nome_2);}</style><mask id="mask" x="0" y="0" width="14.16" height="14" maskUnits="userSpaceOnUse"><g transform="translate(-0.91 -1)"><g id="mask0"><path class="cls-1" d="M11,14.94a.86.86,0,0,0,.7,0l2.9-1.39a.9.9,0,0,0,.5-.79V3.27a.9.9,0,0,0-.5-.79l-2.9-1.39a.86.86,0,0,0-.89.08.31.31,0,0,0-.11.09L5.13,6.32,2.72,4.48a.59.59,0,0,0-.75,0l-.78.7a.6.6,0,0,0,0,.87L3.29,8,1.19,9.91a.6.6,0,0,0,0,.87l.78.7a.59.59,0,0,0,.75,0L5.13,9.68l5.55,5.06A.83.83,0,0,0,11,14.94Zm.58-10.13L7.35,8l4.21,3.19Z"/></g></g></mask><linearGradient id="Sfumatura_senza_nome_2" x1="297.6" y1="-381.94" x2="297.6" y2="-395.94" gradientTransform="matrix(1, 0, 0, -1, -289.64, -380.94)" gradientUnits="userSpaceOnUse"><stop offset="0" stop-color="#fff"/><stop offset="1" stop-color="#fff" stop-opacity="0"/></linearGradient></defs><g id="mask0-2" data-name="mask0"><path class="cls-1" d="M10.9,14.94a.86.86,0,0,0,.7,0l2.9-1.39a.89.89,0,0,0,.49-.79V3.27a.89.89,0,0,0-.49-.79L11.6,1.09a.88.88,0,0,0-.9.08.41.41,0,0,0-.1.09L5.05,6.32,2.64,4.48a.59.59,0,0,0-.75,0l-.78.7a.6.6,0,0,0,0,.87L3.21,8,1.11,9.91a.6.6,0,0,0,0,.87l.78.7a.59.59,0,0,0,.75,0L5.05,9.68l5.55,5.06A.83.83,0,0,0,10.9,14.94Zm.59-10.13L7.29,8l4.2,3.19Z" transform="translate(-0.91 -1)"/></g><g class="cls-2"><path class="cls-3" d="M14.5,2.48,11.6,1.09a.87.87,0,0,0-1,.17L1.1,9.91a.59.59,0,0,0,0,.87l.77.7a.59.59,0,0,0,.75,0L14.06,2.85a.58.58,0,0,1,.93.46v0A.89.89,0,0,0,14.5,2.48Z" transform="translate(-0.91 -1)"/><path class="cls-4" d="M14.5,13.52l-2.9,1.39a.87.87,0,0,1-1-.17L1.1,6.09a.59.59,0,0,1,0-.87l.77-.7a.59.59,0,0,1,.75,0l11.43,8.67a.58.58,0,0,0,.93-.46v0A.89.89,0,0,1,14.5,13.52Z" transform="translate(-0.91 -1)"/><path class="cls-5" d="M11.61,14.88a.87.87,0,0,1-1-.17.51.51,0,0,0,.87-.36V1.65a.51.51,0,0,0-.87-.36.87.87,0,0,1,1-.17L14.5,2.51A.87.87,0,0,1,15,3.3v9.4a.87.87,0,0,1-.49.79Z" transform="translate(-0.91 -1)"/><g class="cls-6"><path class="cls-7" d="M10.9,14.94a.86.86,0,0,0,.7,0l2.9-1.39a.89.89,0,0,0,.49-.79V3.27a.89.89,0,0,0-.49-.79L11.6,1.09a.88.88,0,0,0-.9.08.41.41,0,0,0-.1.09L5.05,6.32,2.64,4.48a.59.59,0,0,0-.75,0l-.78.7a.6.6,0,0,0,0,.87L3.21,8,1.11,9.91a.6.6,0,0,0,0,.87l.78.7a.59.59,0,0,0,.75,0L5.05,9.68l5.55,5.06A.83.83,0,0,0,10.9,14.94Zm.59-10.13L7.29,8l4.2,3.19Z" transform="translate(-0.91 -1)"/></g></g></svg>